<svg width="160" height="60" viewBox="0 0 160 60" fill="none" xmlns="http://www.w3.org/2000/svg">
<rect width="160" height="60" rx="6" fill="white"/>
<path d="M58.468 26.642C58.4167 26.726 58.363 26.789 58.307 26.831C58.251 26.8683 58.181 26.887 58.097 26.887C58.0083 26.887 57.908 26.8497 57.796 26.775C57.6887 26.7003 57.5533 26.6187 57.39 26.53C57.2313 26.4367 57.0423 26.3527 56.823 26.278C56.6037 26.1987 56.3423 26.159 56.039 26.159C55.759 26.159 55.5117 26.194 55.297 26.264C55.087 26.334 54.9097 26.432 54.765 26.558C54.6203 26.684 54.5107 26.8333 54.436 27.006C54.366 27.174 54.331 27.3583 54.331 27.559C54.331 27.8157 54.3987 28.0303 54.534 28.203C54.6693 28.371 54.8467 28.5157 55.066 28.637C55.29 28.7583 55.5443 28.8657 55.829 28.959C56.1137 29.0477 56.403 29.1433 56.697 29.246C56.9957 29.3487 57.2873 29.4653 57.572 29.596C57.8567 29.7267 58.1087 29.8923 58.328 30.093C58.552 30.2937 58.7317 30.5387 58.867 30.828C59.0023 31.1173 59.07 31.4697 59.07 31.885C59.07 32.333 58.993 32.753 58.839 33.145C58.685 33.537 58.461 33.88 58.167 34.174C57.8777 34.4633 57.5183 34.692 57.089 34.86C56.6643 35.028 56.179 35.112 55.633 35.112C55.311 35.112 54.996 35.0793 54.688 35.014C54.3847 34.9533 54.093 34.867 53.813 34.755C53.5377 34.6383 53.2787 34.4983 53.036 34.335C52.7933 34.1717 52.5763 33.9897 52.385 33.789L52.861 33.005C52.903 32.9397 52.9567 32.8883 53.022 32.851C53.0873 32.8137 53.1597 32.795 53.239 32.795C53.3463 32.795 53.4653 32.8463 53.596 32.949C53.7267 33.047 53.883 33.1567 54.065 33.278C54.2517 33.3947 54.4757 33.5043 54.737 33.607C54.9983 33.705 55.311 33.754 55.675 33.754C56.2677 33.754 56.725 33.6093 57.047 33.32C57.3737 33.0307 57.537 32.6317 57.537 32.123C57.537 31.8383 57.4693 31.6073 57.334 31.43C57.1987 31.248 57.019 31.0963 56.795 30.975C56.5757 30.8537 56.3237 30.751 56.039 30.667C55.7543 30.583 55.465 30.4943 55.171 30.401C54.877 30.303 54.5877 30.191 54.303 30.065C54.0183 29.9343 53.764 29.7663 53.54 29.561C53.3207 29.351 53.1433 29.0943 53.008 28.791C52.8727 28.483 52.805 28.1003 52.805 27.643C52.805 27.279 52.875 26.9267 53.015 26.586C53.1597 26.2453 53.3673 25.9443 53.638 25.683C53.9133 25.417 54.2517 25.2047 54.653 25.046C55.0543 24.8873 55.5117 24.808 56.025 24.808C56.6037 24.808 57.1333 24.899 57.614 25.081C58.0993 25.263 58.517 25.522 58.867 25.858L58.468 26.642ZM62.4846 35H60.8396V24.92H62.4846V35ZM73.1258 30.037V34.027C72.1224 34.7503 70.9558 35.112 69.6258 35.112C68.8091 35.112 68.0694 34.986 67.4068 34.734C66.7488 34.4773 66.1864 34.1227 65.7198 33.67C65.2531 33.2127 64.8938 32.669 64.6418 32.039C64.3898 31.409 64.2638 30.716 64.2638 29.96C64.2638 29.1993 64.3851 28.504 64.6278 27.874C64.8704 27.2393 65.2181 26.6957 65.6708 26.243C66.1234 25.7857 66.6694 25.4333 67.3088 25.186C67.9481 24.934 68.6668 24.808 69.4648 24.808C69.8708 24.808 70.2464 24.8407 70.5918 24.906C70.9418 24.9667 71.2661 25.053 71.5648 25.165C71.8634 25.277 72.1388 25.4123 72.3908 25.571C72.6428 25.7297 72.8738 25.907 73.0838 26.103L72.6148 26.852C72.5401 26.9687 72.4444 27.041 72.3278 27.069C72.2111 27.097 72.0851 27.069 71.9498 26.985C71.8144 26.9057 71.6698 26.8217 71.5158 26.733C71.3664 26.6443 71.1938 26.5627 70.9978 26.488C70.8018 26.4087 70.5754 26.3457 70.3188 26.299C70.0621 26.2477 69.7588 26.222 69.4088 26.222C68.8768 26.222 68.3961 26.3107 67.9668 26.488C67.5421 26.6607 67.1781 26.9103 66.8748 27.237C66.5714 27.559 66.3381 27.951 66.1748 28.413C66.0114 28.875 65.9298 29.3907 65.9298 29.96C65.9298 30.562 66.0161 31.101 66.1888 31.577C66.3614 32.0483 66.6064 32.4497 66.9238 32.781C67.2411 33.1077 67.6238 33.3573 68.0718 33.53C68.5244 33.7027 69.0284 33.789 69.5838 33.789C69.9991 33.789 70.3678 33.7447 70.6898 33.656C71.0164 33.5673 71.3361 33.4437 71.6488 33.285V31.283H70.2418C70.1344 31.283 70.0504 31.255 69.9898 31.199C69.9291 31.1383 69.8988 31.0613 69.8988 30.968V30.037H73.1258ZM83.4023 24.92V35H82.5693C82.4433 35 82.336 34.979 82.2473 34.937C82.1587 34.8903 82.0747 34.8157 81.9953 34.713L76.4583 27.601C76.4723 27.7363 76.4817 27.8717 76.4863 28.007C76.4957 28.1377 76.5003 28.259 76.5003 28.371V35H75.0583V24.92H75.9123C75.9823 24.92 76.0407 24.9247 76.0873 24.934C76.1387 24.9387 76.1853 24.9503 76.2273 24.969C76.2693 24.9877 76.309 25.0157 76.3463 25.053C76.3837 25.0903 76.4233 25.137 76.4653 25.193L82.0093 32.312C81.9953 32.1673 81.9837 32.025 81.9743 31.885C81.9697 31.745 81.9673 31.6143 81.9673 31.493V24.92H83.4023ZM93.2668 33.677C93.6541 33.677 93.9994 33.6117 94.3028 33.481C94.6108 33.3503 94.8698 33.1683 95.0798 32.935C95.2944 32.7017 95.4578 32.4217 95.5698 32.095C95.6818 31.7637 95.7378 31.3973 95.7378 30.996V24.92H97.3688V30.996C97.3688 31.5887 97.2731 32.137 97.0818 32.641C96.8951 33.145 96.6244 33.5813 96.2698 33.95C95.9151 34.314 95.4834 34.601 94.9748 34.811C94.4708 35.0163 93.9014 35.119 93.2668 35.119C92.6321 35.119 92.0604 35.0163 91.5518 34.811C91.0478 34.601 90.6184 34.314 90.2638 33.95C89.9091 33.5813 89.6361 33.145 89.4448 32.641C89.2581 32.137 89.1648 31.5887 89.1648 30.996V24.92H90.8028V30.989C90.8028 31.3903 90.8588 31.7567 90.9708 32.088C91.0828 32.4147 91.2438 32.697 91.4538 32.935C91.6638 33.1683 91.9204 33.3503 92.2238 33.481C92.5318 33.6117 92.8794 33.677 93.2668 33.677ZM102.776 30.058C103.14 30.058 103.46 30.0113 103.735 29.918C104.015 29.8247 104.246 29.694 104.428 29.526C104.615 29.3533 104.755 29.1457 104.848 28.903C104.942 28.6603 104.988 28.3897 104.988 28.091C104.988 27.797 104.942 27.5333 104.848 27.3C104.76 27.0667 104.624 26.8683 104.442 26.705C104.26 26.5417 104.029 26.418 103.749 26.334C103.474 26.2453 103.15 26.201 102.776 26.201H101.278V30.058H102.776ZM102.776 24.92C103.434 24.92 104.004 24.997 104.484 25.151C104.97 25.305 105.369 25.522 105.681 25.802C105.999 26.0773 106.234 26.411 106.388 26.803C106.542 27.1903 106.619 27.6197 106.619 28.091C106.619 28.5717 106.538 29.0127 106.374 29.414C106.211 29.8107 105.968 30.1537 105.646 30.443C105.324 30.7277 104.923 30.9517 104.442 31.115C103.966 31.2737 103.411 31.353 102.776 31.353H101.278V35H99.6404V24.92H102.776Z" fill="#ED4C5C"/>
</svg>
